/* XPM */
static char *_477664524054[] = {
/* columns rows colors chars-per-pixel */
"26 21 146 2 ",
"   c #4F0000",
".  c #510000",
"X  c #520000",
"o  c #530000",
"O  c #550000",
"+  c #570000",
"@  c #580000",
"#  c #590000",
"$  c #5B0000",
"%  c #5D0000",
"&  c #5E0000",
"*  c #600000",
"=  c #630000",
"-  c #640000",
";  c #670000",
":  c #6C0000",
">  c #6E0000",
",  c #700000",
"<  c #740000",
"1  c #760000",
"2  c #770000",
"3  c #780000",
"4  c #790000",
"5  c #7B0000",
"6  c #7C0000",
"7  c #7D0000",
"8  c #7E0000",
"9  c #7F0000",
"0  c #800000",
"q  c #810000",
"w  c #830000",
"e  c #840000",
"r  c #860000",
"t  c #870000",
"y  c #880000",
"u  c #890000",
"i  c #8A0000",
"p  c #8B0000",
"a  c #8D0000",
"s  c #8E0000",
"d  c #8F0000",
"f  c #900000",
"g  c #910000",
"h  c #920000",
"j  c #930000",
"k  c #940000",
"l  c #950000",
"z  c #970000",
"x  c #980000",
"c  c #990000",
"v  c #9A0000",
"b  c #9B0000",
"n  c #9C0000",
"m  c #9D0000",
"M  c #9E0000",
"N  c #9E0101",
"B  c #9F0202",
"V  c #9F0303",
"C  c #A00404",
"Z  c #A00606",
"A  c #A10707",
"S  c #A10808",
"D  c #A20909",
"F  c #A20A0A",
"G  c #A20B0B",
"H  c #A30D0D",
"J  c #A30E0E",
"K  c #A40F0F",
"L  c #A41010",
"P  c #A41111",
"I  c #A51212",
"U  c #A51313",
"Y  c #A61414",
"T  c #A61515",
"R  c #A61616",
"E  c #A71717",
"W  c #A71818",
"Q  c #A81B1B",
"!  c #A91B1B",
"~  c #A91C1C",
"^  c #A91D1D",
"/  c #A91E1E",
"(  c #AA1E1E",
")  c #AA2020",
"_  c #AB2121",
"`  c #AC2525",
"'  c #AC2626",
"]  c #AD2727",
"[  c #AE2A2A",
"{  c #AF2C2C",
"}  c #AF2E2E",
"|  c #B02C2C",
" . c #B02F2F",
".. c #B12F2F",
"X. c #B03030",
"o. c #B13131",
"O. c #B13333",
"+. c #B23535",
"@. c #B33838",
"#. c #B43939",
"$. c #B43B3B",
"%. c #B63D3D",
"&. c #B63F3F",
"*. c #B64040",
"=. c #B74040",
"-. c #B74141",
";. c #B74343",
":. c #B84343",
">. c #B94444",
",. c #B84545",
"<. c #B94545",
"1. c #B94646",
"2. c #B94747",
"3. c #BA4949",
"4. c #BB4A4A",
"5. c #BB4B4B",
"6. c #BC4C4C",
"7. c #BC4D4D",
"8. c #BC4E4E",
"9. c #BC5050",
"0. c #BE5252",
"q. c #BE5353",
"w. c #BE5454",
"e. c #BE5555",
"r. c #BF5858",
"t. c #C05959",
"y. c #C15959",
"u. c #C15D5D",
"i. c #C25E5E",
"p. c #C35F5F",
"a. c #C46262",
"s. c #C56767",
"d. c #C66A6A",
"f. c #C76B6B",
"g. c #C86C6C",
"h. c #C86F6F",
"j. c #CA7272",
"k. c #CB7575",
"l. c #CB7676",
"z. c #CB7777",
"x. c #CC7878",
"c. c #CC7979",
"v. c #CE7D7D",
"b. c #CE7E7E",
"n. c #CE7F7F",
"m. c None",
/* pixels */
"m.m.m.m.m.m.m.m.m.m.m.m.m.m.m.m.m.m.m.m.m.m.m.m.m.m.",
"m.m.m.m.m.m.m.m.m.m.m.m.m.m.m.m.m.m.m.m.m.m.m.m.m.m.",
"m.m.m.m.z.j.f.a.t.t.4.6.6.4.6.4.3.$.../ F l m.m.m.m.",
"m.m.m.n.n.z.g.i.t.2.:.:.2.:.2.:.$.#.} / C s 2 m.m.m.",
"m.m.k.n.x.d.t.3.$.X.X.X.........} ` / U V r :   m.m.",
"m.m.h.k.d.e.:.X.] _ / / ! ( Q Q ^ W L V l q ;   m.m.",
"m.m.s.d.t.*.} _ W E I I I I I I L L V V h q ;   m.m.",
"m.m.i.i.2.X._ E L D D H D D D D D V V b h 6 %   m.m.",
"m.m.e.9.@.` W H D V V V V V V V V V b l s 3 $   m.m.",
"m.m.3.,.X.^ E H V V V V V V V V V b l h s 3 $   m.m.",
"m.m.*.*.} W L D V V V V V V V V V b l h u 2 O   m.m.",
"m.m.@.+.` E H V V b b b b b b b b b l s q , X   m.m.",
"m.m.[ [ / H Z V b b l b l l b l b h s u 3 ;     m.m.",
"m.m.E E H V V l h h h h h h h h h s u 6 > X     m.m.",
"m.m.V b b l h h u u u u u u u u u q 3 > $       m.m.",
"m.m.s r q q 6 6 6 3 3 3 3 3 3 2 , > ; X         m.m.",
"m.m.m., ; = = % $ $ $ O O $ $ O X             m.m.m.",
"m.m.m.m.                                    m.m.m.m.",
"m.m.m.m.m.m.m.m.m.m.m.m.m.m.m.m.m.m.m.m.m.m.m.m.m.m.",
"m.m.m.m.m.m.m.m.m.m.m.m.m.m.m.m.m.m.m.m.m.m.m.m.m.m.",
"m.m.m.m.m.m.m.m.m.m.m.m.m.m.m.m.m.m.m.m.m.m.m.m.m.m."
};
