/* XPM */
static char *procblue[] = {
/* columns rows colors chars-per-pixel */
"26 21 152 2 ",
"   c #073F3D",
".  c #08403E",
"X  c #08413F",
"o  c #084240",
"O  c #084341",
"+  c #084442",
"@  c #094644",
"#  c #094745",
"$  c #084845",
"%  c #094846",
"&  c #094947",
"*  c #094B48",
"=  c #094C49",
"-  c #094D4B",
";  c #0A4D4B",
":  c #094F4D",
">  c #09504D",
",  c #09504E",
"<  c #0A5350",
"1  c #0A5351",
"2  c #0A5754",
"3  c #0A5855",
"4  c #0A5956",
"5  c #0B5A57",
"6  c #0B5E5B",
"7  c #0B5F5C",
"8  c #0B605D",
"9  c #0B615E",
"0  c #0C6360",
"q  c #0C6460",
"w  c #0C6461",
"e  c #0C6562",
"r  c #0C6662",
"t  c #0C6663",
"y  c #0C6764",
"u  c #0C6864",
"i  c #0C6966",
"p  c #0C6A66",
"a  c #0D6A67",
"s  c #0D6C69",
"d  c #0D6D69",
"f  c #0D6D6A",
"g  c #0D6E6A",
"h  c #0D6E6B",
"j  c #0D6F6B",
"k  c #0D6F6C",
"l  c #0D706D",
"z  c #0D716D",
"x  c #0D726E",
"c  c #0E736F",
"v  c #0E7470",
"b  c #0E7571",
"n  c #0E7672",
"m  c #0E7773",
"M  c #0F7774",
"N  c #0E7874",
"B  c #0E7975",
"V  c #0E7A76",
"C  c #0E7B77",
"Z  c #0F7B77",
"A  c #0F7C78",
"S  c #0F7D79",
"D  c #0F7E7A",
"F  c #0F7F7B",
"G  c #10807C",
"H  c #11807C",
"J  c #12817D",
"K  c #13817D",
"L  c #15827E",
"P  c #16837F",
"I  c #17837F",
"U  c #188480",
"Y  c #188481",
"T  c #198581",
"R  c #1B8682",
"E  c #1C8682",
"W  c #1D8783",
"Q  c #1E8783",
"!  c #1F8884",
"~  c #208884",
"^  c #218985",
"/  c #228985",
"(  c #238A86",
")  c #248A86",
"_  c #258B87",
"`  c #268B87",
"'  c #288D89",
"]  c #298D89",
"[  c #298D8A",
"{  c #2A8E8A",
"}  c #2B8E8B",
"|  c #2C8F8B",
" . c #2D8F8C",
".. c #2E908C",
"X. c #32928E",
"o. c #33928F",
"O. c #34938F",
"+. c #379491",
"@. c #389592",
"#. c #399693",
"$. c #3A9693",
"%. c #3B9793",
"&. c #3C9794",
"*. c #3D9894",
"=. c #3F9995",
"-. c #419A96",
";. c #449B98",
":. c #459C99",
">. c #479D9A",
",. c #499E9B",
"<. c #4A9F9C",
"1. c #4B9F9C",
"2. c #4CA09D",
"3. c #4EA19E",
"4. c #4FA19E",
"5. c #50A29F",
"6. c #51A29F",
"7. c #52A3A0",
"8. c #54A4A1",
"9. c #55A5A2",
"0. c #56A5A2",
"q. c #57A6A3",
"w. c #58A6A4",
"e. c #59A7A4",
"r. c #5AA7A4",
"t. c #5DA9A6",
"y. c #5EA9A6",
"u. c #5EA9A7",
"i. c #5FAAA7",
"p. c #62ABA9",
"a. c #63ACA9",
"s. c #63ACAA",
"d. c #67AEAB",
"f. c #67AEAC",
"g. c #69AFAD",
"h. c #6CB1AE",
"j. c #70B3B0",
"k. c #73B4B2",
"l. c #74B5B2",
"z. c #74B5B3",
"x. c #75B6B3",
"c. c #77B7B4",
"v. c #7BB9B7",
"b. c #7DBAB8",
"n. c #7EBAB8",
"m. c #7FBBB9",
"M. c #80BCBA",
"N. c #81BCBA",
"B. c #85BEBC",
"V. c #86BEBC",
"C. c #87BFBD",
"Z. c None",
/* pixels */
"Z.Z.Z.Z.Z.Z.Z.Z.Z.Z.Z.Z.Z.Z.Z.Z.Z.Z.Z.Z.Z.Z.Z.Z.Z.Z.",
"Z.Z.Z.Z.Z.Z.Z.Z.Z.Z.Z.Z.Z.Z.Z.Z.Z.Z.Z.Z.Z.Z.Z.Z.Z.Z.",
"Z.Z.Z.Z.b.b.l.h.a.u.e.w.e.8.w.8.7.,.%...U N Z.Z.Z.Z.",
"Z.Z.Z.C.C.b.c.g.u.8.7.7.7.7.7.2.2.;.%.{ K k 7 Z.Z.Z.",
"Z.Z.b.C.M.l.a.8.,.*.*.*.$.%.$.$.@.O.{ ~ Z d 2 . Z.Z.",
"Z.Z.c.b.l.i.2.*.o. .{ { { { { { { ` ! K B p <   Z.Z.",
"Z.Z.j.k.p.1.$...` ~ ~ ~ ~ ~ ! ! ! E P F b p >   Z.Z.",
"Z.Z.f.d.6.&...` ~ U U U U U U I U K G Z c r ;   Z.Z.",
"Z.Z.i.e.:.X._ ! U K F K K K K K H F Z B l r = X Z.Z.",
"Z.Z.8.5.&. .~ U K K F F F F F F F F B b j 8 +   Z.Z.",
"Z.Z.2.2.@._ ~ U K F F F F F F F F Z B b s 8 +   Z.Z.",
"Z.Z.:.-.o._ E K F F C F Z F A F F Z B c s 5 X   Z.Z.",
"Z.Z.$.X.{ W K F F Z B B B B B B Z b c s 0 ,     Z.Z.",
"Z.Z.{ ~ E K F B b b M b b b b b M l s r 5 O     Z.Z.",
"Z.Z.F F B B b c l j l l k k k k s u 8 5 @       Z.Z.",
"Z.Z.l s u u r r 9 9 8 8 8 8 8 8 6 5 , X         Z.Z.",
"Z.Z.Z.5 1 : ; ; & & @ @ & @ # # o X . .       Z.Z.Z.",
"Z.Z.Z.Z.X X X     X X     X   X .   . . . . Z.Z.Z.Z.",
"Z.Z.Z.Z.Z.Z.Z.Z.Z.Z.Z.Z.Z.Z.Z.Z.Z.Z.Z.Z.Z.Z.Z.Z.Z.Z.",
"Z.Z.Z.Z.Z.Z.Z.Z.Z.Z.Z.Z.Z.Z.Z.Z.Z.Z.Z.Z.Z.Z.Z.Z.Z.Z.",
"Z.Z.Z.Z.Z.Z.Z.Z.Z.Z.Z.Z.Z.Z.Z.Z.Z.Z.Z.Z.Z.Z.Z.Z.Z.Z."
};
