/* XPM */
static char *procyel[] = {
/* columns rows colors chars-per-pixel */
"26 21 151 2 ",
"   c #3B4108",
".  c #3B4208",
"X  c #3D4309",
"o  c #3E4409",
"O  c #3E4509",
"+  c #3F4509",
"@  c #404609",
"#  c #414809",
"$  c #424909",
"%  c #424A09",
"&  c #434A0A",
"*  c #444C0A",
"=  c #464D0A",
"-  c #464E0A",
";  c #48500A",
":  c #4A520B",
">  c #4B520B",
",  c #4B530B",
"<  c #4D550B",
"1  c #4E560B",
"2  c #51590C",
"3  c #535B0C",
"4  c #545C0C",
"5  c #58610D",
"6  c #59620D",
"7  c #5A630D",
"8  c #5B640D",
"9  c #5C660D",
"0  c #5D660D",
"q  c #5D670D",
"w  c #5E670D",
"e  c #5F680E",
"r  c #5F690E",
"t  c #60690E",
"y  c #616A0E",
"u  c #616B0E",
"i  c #626C0E",
"p  c #636D0E",
"a  c #656F0E",
"s  c #66700F",
"d  c #66710F",
"f  c #67710F",
"g  c #67720F",
"h  c #68720F",
"j  c #68730F",
"k  c #69740F",
"l  c #6A750F",
"z  c #6B760F",
"x  c #6C770F",
"c  c #6D7810",
"v  c #6E7910",
"b  c #6F7A10",
"n  c #6F7B10",
"m  c #707B10",
"M  c #717D10",
"N  c #727D10",
"B  c #727E10",
"V  c #737E10",
"C  c #737F10",
"Z  c #747F11",
"A  c #758011",
"S  c #758111",
"D  c #768211",
"F  c #778211",
"G  c #778311",
"H  c #788312",
"J  c #788413",
"K  c #798414",
"L  c #798515",
"P  c #7A8617",
"I  c #7B8618",
"U  c #7B8718",
"Y  c #7C8819",
"T  c #7C881A",
"R  c #7D881B",
"E  c #7E891D",
"W  c #7E8A1E",
"Q  c #7F8A1F",
"!  c #808B20",
"~  c #808B21",
"^  c #818C22",
"/  c #818C23",
"(  c #828D24",
")  c #828D25",
"_  c #838E26",
"`  c #848F27",
"'  c #85902A",
"]  c #85912A",
"[  c #86912B",
"{  c #86912C",
"}  c #87922D",
"|  c #88932F",
" . c #899330",
".. c #8B9534",
"X. c #8C9635",
"o. c #8D9738",
"O. c #8E983A",
"+. c #8E993A",
"@. c #90993C",
"#. c #909A3D",
"$. c #909B3D",
"%. c #919A3E",
"&. c #919B3F",
"*. c #929C41",
"=. c #939D42",
"-. c #959E45",
";. c #959F46",
":. c #96A048",
">. c #98A14A",
",. c #99A24C",
"<. c #99A24D",
"1. c #99A34D",
"2. c #9AA34E",
"3. c #9BA450",
"4. c #9BA550",
"5. c #9CA551",
"6. c #9CA652",
"7. c #9DA653",
"8. c #9EA655",
"9. c #9FA757",
"0. c #9EA856",
"q. c #A0A958",
"w. c #A0A959",
"e. c #A1AA5A",
"r. c #A2AA5C",
"t. c #A3AC5E",
"y. c #A4AC5F",
"u. c #A4AC60",
"i. c #A6AE63",
"p. c #A6AE64",
"a. c #A6AF64",
"s. c #A9B068",
"d. c #A9B169",
"f. c #AAB26A",
"g. c #ABB36C",
"h. c #AEB571",
"j. c #B0B774",
"k. c #B0B775",
"l. c #B0B875",
"z. c #B1B876",
"x. c #B2B979",
"c. c #B4BB7B",
"v. c #B5BC7E",
"b. c #B6BC7F",
"n. c #B6BD80",
"m. c #B7BE81",
"M. c #B8BE82",
"N. c #BAC086",
"B. c #BAC087",
"V. c #BBC188",
"C. c None",
/* pixels */
"C.C.C.C.C.C.C.C.C.C.C.C.C.C.C.C.C.C.C.C.C.C.C.C.C.C.",
"C.C.C.C.C.C.C.C.C.C.C.C.C.C.C.C.C.C.C.C.C.C.C.C.C.C.",
"C.C.C.C.M.v.z.g.p.t.e.e.0.e.e.7.6.>.+.| R n C.C.C.C.",
"C.C.C.V.M.n.z.g.y.0.6.6.6.4.4.4.2.;.O.[ H l 6 C.C.C.",
"C.C.v.M.M.z.p.7.;.*.%.%.%.#.#.O.+...| ^ D p 2   C.C.",
"C.C.x.v.z.u.<.%...| | { [ [ { { [ _ ^ K N p 1   C.C.",
"C.C.h.j.p.<.%. ._ ) ^ ^ ^ ^ ^ ^ Q E I D m t > . C.C.",
"C.C.d.d.7.%.| _ ^ R T T T T T T T I J V z t >   C.C.",
"C.C.y.r.;...` Q I K K K K K P L J J Z m l 9 *   C.C.",
"C.C.7.4.%.{ ) E K H G G G G G G D D N v h 9 &   C.C.",
"C.C.3.<.O.[ Q I K G G D G G G G J Z B v h 6 @   C.C.",
"C.C.;.=...) E I H D D D S S S S Z Z m x i 4     C.C.",
"C.C.O...' Q I D Z B B B B B B B B m x d 9 <     C.C.",
"C.C.' ) E K D B m v v v v v v v x x d e 3 .     C.C.",
"C.C.J Z Z B v x j j k j d j d d s t 8 3 & . .   C.C.",
"C.C.z f t t t 9 9 8 7 9 7 7 7 7 5 3 > @     . . C.C.",
"C.C.C.4 1 > > * * & & & & # & @ O . . . . . . C.C.C.",
"C.C.C.C.. . . . . . . . . . . . . . . . . . C.C.C.C.",
"C.C.C.C.C.C.C.C.C.C.C.C.C.C.C.C.C.C.C.C.C.C.C.C.C.C.",
"C.C.C.C.C.C.C.C.C.C.C.C.C.C.C.C.C.C.C.C.C.C.C.C.C.C.",
"C.C.C.C.C.C.C.C.C.C.C.C.C.C.C.C.C.C.C.C.C.C.C.C.C.C."
};
