/* XPM */
static char *bq29e_r8khn[] = {
/* columns rows colors chars-per-pixel */
"44 36 100 2 ",
"   c black",
".  c #444953",
"X  c #454A54",
"o  c #464B55",
"O  c #484D56",
"+  c #494E58",
"@  c #4A4F58",
"#  c #4B505A",
"$  c #4C515A",
"%  c #4D525B",
"&  c #4E525C",
"*  c #50545E",
"=  c #50555E",
"-  c #51565F",
";  c #545861",
":  c #565A63",
">  c #565B64",
",  c #575C64",
"<  c #585C65",
"1  c #5A5E67",
"2  c #5A5F67",
"3  c #5B5F68",
"4  c #5C6068",
"5  c #5C6069",
"6  c #5C6169",
"7  c #5D616A",
"8  c #5E626B",
"9  c #60646D",
"0  c #61656D",
"q  c #61666E",
"w  c #63676F",
"e  c #646870",
"r  c #666A72",
"t  c #696D74",
"y  c #696D75",
"u  c #6B6F77",
"i  c #6F737A",
"p  c #71757C",
"a  c #73777E",
"s  c #75787F",
"d  c #777A81",
"f  c #797C84",
"g  c #797D84",
"h  c #7A7D84",
"j  c #7C8087",
"k  c #7E8188",
"l  c #7F8288",
"z  c #7F838A",
"x  c gray56",
"c  c #868A90",
"v  c #888B92",
"b  c #898C92",
"n  c #8B8E94",
"m  c #93959B",
"M  c #95969C",
"N  c #94979C",
"B  c #94979D",
"V  c #95989D",
"C  c #96989C",
"Z  c #9A9CA1",
"A  c #9B9DA3",
"S  c #9B9EA3",
"D  c #9C9FA3",
"F  c #9C9FA4",
"G  c #9DA0A5",
"H  c #A0A3A8",
"J  c #A1A3A8",
"K  c #A2A4A9",
"L  c #A2A5A9",
"P  c #A2A4AA",
"I  c #A2A5AA",
"U  c #A3A5AA",
"Y  c #A4A6AB",
"T  c #A5A7AC",
"R  c #ACADAE",
"E  c #AFAFAF",
"W  c #AEAEB0",
"Q  c #AFAFB0",
"!  c #AFB0B0",
"~  c gray69",
"^  c #B0B1B1",
"/  c #B1B1B1",
"(  c #B2B2B2",
")  c gray70",
"_  c #B4B4B4",
"`  c gray71",
"'  c #B6B6B6",
"]  c #B7B7B7",
"[  c gray72",
"{  c #B9B9B9",
"}  c gray73",
"|  c #BABBBC",
" . c gray75",
".. c #C1C1C1",
"X. c #C8C8C8",
"o. c gray82",
"O. c #D5D5D5",
"+. c #D6D7D8",
"@. c #E9E9E9",
"#. c gray92",
/* pixels */
". . . . . . . . . . . . . . . . . . . . . . . . . . . . . . . . . . . . . . . . . . . . ",
". . . . . . . . . . . . . . . . . . . . . . . . . . . . . . . . . . . . . . . . . . . . ",
". . . . . . . . . . . . . . . . . . . . . . . . . . . . . . . . . . . . . . . . . . . . ",
". . . . . . X o O + # $ % & & & & & & & & & & & & & & & & & & & & % $ # + O o X . . . . ",
". . . . X o + $ - > 3 8 9 0 q q q q q q q q q q q q q q q q q q 0 9 8 3 > - $ + o X . . ",
". . . . o @ * < q u a f j k k k k k k k k k k k k k k k k k k k k j f a u q < * @ o . . ",
". . . X + * 3 y h v V G U Y T T T T T T T T T T T T T T T T T T Y U G V b h y 3 * + X . ",
". . . o % < y z P +.@.#.#.#.#.#.#.#.#.#.#.#.#.#.#.#.#.#.#.#.#.#.#.#.#.@.+.P z y < % o . ",
". . . O - q h J O.o...} { { { { { { { { { { { { { { { { { { { { { { } ..o.O.J h q - O . ",
". . . + > u b | X.{ [ [ [ [ [ [ [ [ [ [ [ [ [ [ [ [ [ [ [ [ [ [ [ [ [ [ { X.| b u > + . ",
". . . # 3 a B [  .[ [ [ [ [ [ [ [ [ [ [ [ [ [ [ [ [ [ [ [ [ [ [ [ [ [ [ [  .[ V a 3 # . ",
". . . $ 8 f F [ { [ [ [ [ [ [ [ [ [ [ [ [ [ [ [ [ [ [ [ [ [ [ [ [ [ [ [ [ { [ F f 8 $ . ",
". . . % 9 j J ] ] ] ] ] ] ] ] ] ] ] ] ] ] ] ] ] ] ] ] ] ] ] ] ] ] ] ] ] ] ] ] J j 9 % . ",
". . . & 0 k L ] ] ] ] ] ] ] ] ] ] ] ] ] ] ] ] ] ] ] ] ] ] ] ] ] ] ] ] ] ] ] ] L k 0 & . ",
". . . & q k I ' ' ' ' ' ' ' ' ' ' ' ' ' ' ' ' ' ' ' ' ' ' ' ' ' ' ' ' ' ' ' ' I k q & . ",
". . . & q k I ' ' ' ' ' ' ' ' ' ' ' ' ' ' ' ' ' ' ' ' ' ' ' ' ' ' ' ' ' ' ' ' I k q & . ",
". . . & q k I ` ` ` ` ` ` ` ` ` ` ` ` ` ` ` ` ` ` ` ` ` ` ` ` ` ` ` ` ` ` ` ` I k q & . ",
". . . & q k I ` ` ` ` ` ` ` ` ` ` ` ` ` ` ` ` ` ` ` ` ` ` ` ` ` ` ` ` ` ` ` ` I k q & . ",
". . . & q k I _ _ _ _ _ _ _ _ _ _ _ _ _ x x x x x x _ _ _ _ _ _ _ _ _ _ _ _ _ I k q & . ",
". . . & q k I _ _ _ _ _ _ _ _ _ _ _ _ _             _ _ _ _ _ _ _ _ _ _ _ _ _ I k q & . ",
". . . & q k I ) ) ) ) ) ) ) ) ) ) ) ) )             ) ) ) ) ) ) ) ) ) ) ) ) ) I k q & . ",
". . . & q k I ) ) ) ) ) ) ) ) ) ) ) ) ) ) ) ) ) ) ) ) ) ) ) ) ) ) ) ) ) ) ) ) I k q & . ",
". . . & q k I ( ( ( ( ( ( ( ( ( ( ( ( ( ( ( ( ( ( ( ( ( ( ( ( ( ( ( ( ( ( ( ( I k q & . ",
". . . & q k I ( ( ( ( ( ( ( ( ( ( ( ( ( ( ( ( ( ( ( ( ( ( ( ( ( ( ( ( ( ( ( ( I k q & . ",
". . . & 0 k K / / / / / / / / / / / / / / / / / / / / / / / / / / / / / / / / K k 0 & . ",
". . . % 9 j H / / / / / / / / / / / / / / / / / / / / / / / / / / / / / / / / H j 9 % . ",
". . . $ 8 f A ~ ~ ~ ~ ~ ~ ~ ~ ~ ~ ~ ~ ~ ~ ~ ~ ~ ~ ~ ~ ~ ~ ~ ~ ~ ~ ~ ~ ~ ~ ~ ~ A f 8 $ . ",
". . . # 3 a m ^ ~ ~ ~ ~ ~ ~ ~ ~ ~ ~ ~ ~ ~ ~ ~ ~ ~ ~ ~ ~ ~ ~ ~ ~ ~ ~ ~ ~ ~ ~ ^ m a 3 # . ",
". . . + > u c W ~ ~ ~ ~ ~ ~ ~ ~ ~ ~ ~ ~ ~ ~ ~ ~ ~ ~ ~ ~ ~ ~ ~ ~ ~ ~ ~ ~ ~ ~ W c u > + . ",
". . . O - q d C Q E E E E E E E E E E E E E E E E E E E E E E E E E E E E Q C d q - O . ",
". . . o % < r g M R ! E E E E E E E E E E E E E E E E E E E E E E E E ! R M g r < % o . ",
". . . X + * 1 e p l n N Z S D D D D D D D D D D D D D D D D D D S Z N n l p e 1 * + X . ",
". . . . o @ * : 5 w t i a s s s s s s s s s s s s s s s s s s s s a i t w 5 : * @ o . . ",
". . . . X o + % = ; , 2 4 6 7 7 7 7 7 7 7 7 7 7 7 7 7 7 7 7 7 7 6 4 2 , ; = % + o X . . ",
". . . . . . X o O + # $ % & & & & & & & & & & & & & & & & & & & & % $ # + O o X . . . . ",
". . . . . . . . . . . . . . . . . . . . . . . . . . . . . . . . . . . . . . . . . . . . "
};
