/* XPM */
static char *_sc93_a6bk3[] = {
/* columns rows colors chars-per-pixel */
"44 36 104 2 ",
"   c black",
".  c #434343",
"X  c #444953",
"o  c #454A54",
"O  c #464B55",
"+  c #484D56",
"@  c #494E58",
"#  c #4A4F58",
"$  c #4B505A",
"%  c #4C515A",
"&  c #4D525B",
"*  c #4E525C",
"=  c #50545E",
"-  c #50555E",
";  c #51565F",
":  c #545861",
">  c #565A63",
",  c #565B64",
"<  c #575C64",
"1  c #585C65",
"2  c #5A5E67",
"3  c #5A5F67",
"4  c #5B5F68",
"5  c #5C6068",
"6  c #5C6069",
"7  c #5C6169",
"8  c #5D616A",
"9  c #5E626B",
"0  c #60646D",
"q  c #61656D",
"w  c #61666E",
"e  c #63676F",
"r  c #646870",
"t  c #666A72",
"y  c #696D74",
"u  c #696D75",
"i  c #6B6F77",
"p  c #6F737A",
"a  c #727272",
"s  c #71757C",
"d  c #73777E",
"f  c #75787F",
"g  c #777A81",
"h  c #797C84",
"j  c #797D84",
"k  c #7A7D84",
"l  c #7C8087",
"z  c #7E8188",
"x  c #7F8288",
"c  c #7F838A",
"v  c gray56",
"b  c #868A90",
"n  c #888B92",
"m  c #898C92",
"M  c #8B8E94",
"N  c #93959B",
"B  c #95969C",
"V  c #94979C",
"C  c #94979D",
"Z  c #95989D",
"A  c #96989C",
"S  c #989898",
"D  c #9A9CA1",
"F  c #9B9DA3",
"G  c #9B9EA3",
"H  c #9C9FA3",
"J  c #9C9FA4",
"K  c #9DA0A5",
"L  c #A0A3A8",
"P  c #A1A3A8",
"I  c #A2A4A9",
"U  c #A2A5A9",
"Y  c #A2A4AA",
"T  c #A2A5AA",
"R  c #A3A5AA",
"E  c #A4A6AB",
"W  c #A5A7AC",
"Q  c gray67",
"!  c #ACADAE",
"~  c #AFAFAF",
"^  c #AEAEB0",
"/  c #AFAFB0",
"(  c #AFB0B0",
")  c gray69",
"_  c #B0B1B1",
"`  c #B1B1B1",
"'  c #B2B2B2",
"]  c gray70",
"[  c #B4B4B4",
"{  c gray71",
"}  c #B6B6B6",
"|  c #B7B7B7",
" . c gray72",
".. c #B9B9B9",
"X. c gray73",
"o. c #BABBBC",
"O. c gray75",
"+. c #C1C1C1",
"@. c #C8C8C8",
"#. c gray82",
"$. c #D5D5D5",
"%. c #D6D7D8",
"&. c #E9E9E9",
"*. c gray92",
/* pixels */
"X X X X X X X X X X X X X X X X X X X X X X X X X X X X X X X X X X X X X X X X X X X X ",
"X X X X X X X X X X X X X X X X X X X X X X X X X X X X X X X X X X X X X X X X X X X X ",
"X X X X X X X X X X X X X X X X X X X X X X X X X X X X X X X X X X X X X X X X X X X X ",
"X X X X X X o O + @ $ % & * * * * * * * * * * * * * * * * * * * * & % $ @ + O o X X X X ",
"X X X X o O @ % ; , 4 9 0 q w w w w w w w w w w w w w w w w w w q 0 9 4 , ; % @ O o X X ",
"X X X X O # = 1 w i d h l z z z z z z z z z z z z z z z z z z z z l h d i w 1 = # O X X ",
"X X X o @ = 4 u k n Z K R E W W W W W W W W W W W W W W W W W W E R K Z m k u 4 = @ o X ",
"X X X O & 1 u c Y %.&.*.*.*.*.*.*.*.*.*.*.*.*.*.*.*.*.*.*.*.*.*.*.*.*.&.%.Y c u 1 & O X ",
"X X X + ; w k P $.#.+.X.............................................X.+.#.$.P k w ; + X ",
"X X X @ , i m o.@... . . . . . . . . . . . . . . . . . . . . . . . . . ...@.o.m i , @ X ",
"X X X $ 4 d C  .O. . . . . . . . . . . . . . . . . . . . . . . . . . . . .O. .Z d 4 $ X ",
"X X X % 9 h J  ... . . . . . . . . . . . . . . . . . . . . . . . . . . . ... .J h 9 % X ",
"X X X & 0 l P | | | | | | | | | | | | | | | | | | | | | | | | | | | | | | | | P l 0 & X ",
"X X X * q z U | | | | | | | | | | | | | | | | | | | | | | | | | | | | | | | | U z q * X ",
"X X X * w z T } } } } } } } } } } } } } } } a a } } } } } } } } } } } } } } } T z w * X ",
"X X X * w z T } } } } } } } } } } } } } } }     } } } } } } } } } } } } } } } T z w * X ",
"X X X * w z T { { { { { { { { { { { { { { {     { { { { { { { { { { { { { { { T z w * X ",
"X X X * w z T { { { { { { { { { { { { { { {     { { { { { { { { { { { { { { { T z w * X ",
"X X X * w z T [ [ [ [ [ [ [ [ [ [ Q v v v v     v v v v Q [ [ [ [ [ [ [ [ [ [ T z w * X ",
"X X X * w z T [ [ [ [ [ [ [ [ [ [ v                     v [ [ [ [ [ [ [ [ [ [ T z w * X ",
"X X X * w z T ] ] ] ] ] ] ] ] ] ] S . . . .     . . . . S ] ] ] ] ] ] ] ] ] ] T z w * X ",
"X X X * w z T ] ] ] ] ] ] ] ] ] ] ] ] ] ] ]     ] ] ] ] ] ] ] ] ] ] ] ] ] ] ] T z w * X ",
"X X X * w z T ' ' ' ' ' ' ' ' ' ' ' ' ' ' '     ' ' ' ' ' ' ' ' ' ' ' ' ' ' ' T z w * X ",
"X X X * w z T ' ' ' ' ' ' ' ' ' ' ' ' ' ' '     ' ' ' ' ' ' ' ' ' ' ' ' ' ' ' T z w * X ",
"X X X * q z I ` ` ` ` ` ` ` ` ` ` ` ` ` ` `     ` ` ` ` ` ` ` ` ` ` ` ` ` ` ` I z q * X ",
"X X X & 0 l L ` ` ` ` ` ` ` ` ` ` ` ` ` ` ` ` ` ` ` ` ` ` ` ` ` ` ` ` ` ` ` ` L l 0 & X ",
"X X X % 9 h F ) ) ) ) ) ) ) ) ) ) ) ) ) ) ) ) ) ) ) ) ) ) ) ) ) ) ) ) ) ) ) ) F h 9 % X ",
"X X X $ 4 d N _ ) ) ) ) ) ) ) ) ) ) ) ) ) ) ) ) ) ) ) ) ) ) ) ) ) ) ) ) ) ) _ N d 4 $ X ",
"X X X @ , i b ^ ) ) ) ) ) ) ) ) ) ) ) ) ) ) ) ) ) ) ) ) ) ) ) ) ) ) ) ) ) ) ^ b i , @ X ",
"X X X + ; w g A / ~ ~ ~ ~ ~ ~ ~ ~ ~ ~ ~ ~ ~ ~ ~ ~ ~ ~ ~ ~ ~ ~ ~ ~ ~ ~ ~ ~ / A g w ; + X ",
"X X X O & 1 t j B ! ( ~ ~ ~ ~ ~ ~ ~ ~ ~ ~ ~ ~ ~ ~ ~ ~ ~ ~ ~ ~ ~ ~ ~ ~ ( ! B j t 1 & O X ",
"X X X o @ = 2 r s x M V D G H H H H H H H H H H H H H H H H H H G D V M x s r 2 = @ o X ",
"X X X X O # = > 6 e y p d f f f f f f f f f f f f f f f f f f f f d p y e 6 > = # O X X ",
"X X X X o O @ & - : < 3 5 7 8 8 8 8 8 8 8 8 8 8 8 8 8 8 8 8 8 8 7 5 3 < : - & @ O o X X ",
"X X X X X X o O + @ $ % & * * * * * * * * * * * * * * * * * * * * & % $ @ + O o X X X X ",
"X X X X X X X X X X X X X X X X X X X X X X X X X X X X X X X X X X X X X X X X X X X X "
};
