/* XPM */
static char *mi0c2_nmucv[] = {
/* columns rows colors chars-per-pixel */
"44 36 96 2 ",
"   c black",
".  c #484848",
"X  c #444953",
"o  c #454A54",
"O  c #464B55",
"+  c #484D56",
"@  c #494E58",
"#  c #4A4F58",
"$  c #4B505A",
"%  c #4C515A",
"&  c #4D525B",
"*  c #4E525C",
"=  c #50545E",
"-  c #50555E",
";  c #51565F",
":  c #5A5A5A",
">  c #5B5B5B",
",  c gray36",
"<  c #5D5D5D",
"1  c gray37",
"2  c #5E5F5F",
"3  c #5F5F5F",
"4  c #545861",
"5  c #565A63",
"6  c #565B64",
"7  c #575C64",
"8  c #585C65",
"9  c #5A5E67",
"0  c #5A5F67",
"q  c #5B5F68",
"w  c #5F6060",
"e  c #5C6068",
"r  c #5C6069",
"t  c #5C6169",
"y  c #5D616A",
"u  c #5E626B",
"i  c #606060",
"p  c #626263",
"a  c gray39",
"s  c #656565",
"d  c #676767",
"f  c #60646D",
"g  c #61656D",
"h  c #61666E",
"j  c #63676F",
"k  c gray43",
"l  c #646870",
"z  c #666A72",
"x  c #696D74",
"c  c #696D75",
"v  c #6B6F77",
"b  c #6F737A",
"n  c #737375",
"m  c #737475",
"M  c #777777",
"N  c #71757C",
"B  c #73777E",
"V  c #75787F",
"C  c #7D7E7F",
"Z  c #777A81",
"A  c #797C84",
"S  c #797D84",
"D  c #7A7D84",
"F  c #7C8087",
"G  c #7E8188",
"H  c #7F8288",
"J  c #7F838A",
"K  c #818181",
"L  c #88898F",
"P  c #888B8F",
"I  c #868A90",
"U  c #888B92",
"Y  c #898C92",
"T  c #8B8E94",
"R  c gray57",
"E  c #939494",
"W  c #93959B",
"Q  c #94979C",
"!  c #94979D",
"~  c #95979D",
"^  c #95989D",
"/  c #999A9B",
"(  c #9A9CA1",
")  c #9B9DA3",
"_  c #9B9EA3",
"`  c #9C9FA3",
"'  c #9C9FA4",
"]  c #9DA0A5",
"[  c #A0A3A8",
"{  c #A1A3A8",
"}  c #A2A4A9",
"|  c #A2A5A9",
" . c #A2A5AA",
".. c #A3A5AA",
"X. c #A4A6AB",
"o. c #A5A7AC",
/* pixels */
"X X X X X X X X X X X X X X X X X X X X X X X X X X X X X X X X X X X X X X X X X X X X ",
"X X X X X X X X X X X X X X X X X X X X X X X X X X X X X X X X X X X X X X X X X X X X ",
"X X X X X X X X X X X X X X X X X X X X X X X X X X X X X X X X X X X X X X X X X X X X ",
"X X X X X X o O + @ $ % & * * * * * * * * * * * * * * * * * * * * & % $ @ + O o X X X X ",
"X X X X o O @ % ; 6 q u f g h h h h h h h h h h h h h h h h h h g f u q 6 ; % @ O o X X ",
"X X X X O # = 8 h v B A F G G G G G G G G G G G G G G G G G G G G F A B v h 8 = # O X X ",
"X X X o @ = q c D U ^ ] ..X.o.o.o.o.o.o.o.o.o.o.o.o.o.o.o.o.o.o.X...] ^ Y D c q = @ o X ",
"X X X O & 8 c J ~ / E R R R R R R R R R R R R R R R R R R R R R R R R E / ~ J c 8 & O X ",
"X X X + ; h D W K M d i 3 3 3 3 3 3 3 3 3 3 3 3 3 3 3 3 3 3 3 3 3 3 i d M K W D h ; + X ",
"X X X @ 6 v Y C k 3 1 3 3 3 3 3 3 3 3 3 3 3 3 3 3 3 3 3 3 3 3 3 3 3 3 1 3 k C Y v 6 @ X ",
"X X X $ q B ! a s 1 1 1 1 1 1 1 1 1 1 1 1 1 1 1 1 1 1 1 1 1 1 1 1 1 1 1 1 s p ^ B q $ X ",
"X X X % u A ' 1 3 1 1 1 1 1 1 1 1 1 1 1 1 1 1 1 1 1 1 1 1 1 1 1 1 1 1 1 1 3 1 ' A u % X ",
"X X X & f F { < < < < < < < < < < < < < < < < < < < < < < < < < < < < < < < < { F f & X ",
"X X X * g G | < < < < < < < < < < < < < < < < < < < < < < < < < < < < < < < < | G g * X ",
"X X X * h G  ., , , , , , , , , , , , , , , , , , , , , , , , , , , , , , , ,  .G h * X ",
"X X X * h G  ., , , , , , , , , , , , , , , , , , , , , , , , , , , , , , , ,  .G h * X ",
"X X X * h G  .> > > > > > > > > > > > > > > > > > > > > > > > > > > > > > > >  .G h * X ",
"X X X * h G  .> > > > > > > > > > > > > > > > > > > > > > > > > > > > > > > >  .G h * X ",
"X X X * h G  .: : : : : : : : : : : : : . . . . . . : : : : : : : : : : : : :  .G h * X ",
"X X X * h G  .: : : : : : : : : : : : :             : : : : : : : : : : : : :  .G h * X ",
"X X X * h G  .: : : : : : : : : : : : :             : : : : : : : : : : : : :  .G h * X ",
"X X X * h G  .: : : : : : : : : : : : : : : : : : : : : : : : : : : : : : : :  .G h * X ",
"X X X * h G  .: : : : : : : : : : : : : : : : : : : : : : : : : : : : : : : :  .G h * X ",
"X X X * h G  .: : : : : : : : : : : : : : : : : : : : : : : : : : : : : : : :  .G h * X ",
"X X X * g G } : : : : : : : : : : : : : : : : : : : : : : : : : : : : : : : : } G g * X ",
"X X X & f F [ : : : : : : : : : : : : : : : : : : : : : : : : : : : : : : : : [ F f & X ",
"X X X % u A ) : : : : : : : : : : : : : : : : : : : : : : : : : : : : : : : : ) A u % X ",
"X X X $ q B W 3 : : : : : : : : : : : : : : : : : : : : : : : : : : : : : : 2 W B q $ X ",
"X X X @ 6 v I m : : : : : : : : : : : : : : : : : : : : : : : : : : : : : : m I v 6 @ X ",
"X X X + ; h Z P w : : : : : : : : : : : : : : : : : : : : : : : : : : : : w P Z h ; + X ",
"X X X O & 8 z S L n 3 : : : : : : : : : : : : : : : : : : : : : : : : 3 n L S z 8 & O X ",
"X X X o @ = 9 l N H T Q ( _ ` ` ` ` ` ` ` ` ` ` ` ` ` ` ` ` ` ` _ ( Q T H N l 9 = @ o X ",
"X X X X O # = 5 r j x b B V V V V V V V V V V V V V V V V V V V V B b x j r 5 = # O X X ",
"X X X X o O @ & - 4 7 0 e t y y y y y y y y y y y y y y y y y y t e 0 7 4 - & @ O o X X ",
"X X X X X X o O + @ $ % & * * * * * * * * * * * * * * * * * * * * & % $ @ + O o X X X X ",
"X X X X X X X X X X X X X X X X X X X X X X X X X X X X X X X X X X X X X X X X X X X X "
};
