/* XPM */
static char *up53t_fsthm[] = {
/* columns rows colors chars-per-pixel */
"25 18 2 1 ",
"  c #2E3192",
". c None",
/* pixels */
".........................",
".........................",
".........................",
"...                   ...",
"...                   ...",
"...                   ...",
"...                   ...",
"...                   ...",
"...                   ...",
"...                   ...",
"...                   ...",
"...                   ...",
"...                   ...",
"...                   ...",
"...                   ...",
".........................",
".........................",
"........................."
};
