/* XPM */
static char *irkhd_o1m1w[] = {
/* columns rows colors chars-per-pixel */
"44 36 100 2 ",
"   c black",
".  c #222222",
"X  c #3A3A3A",
"o  c #484848",
"O  c #4C4C4C",
"+  c #444953",
"@  c #454A54",
"#  c #464B55",
"$  c #484D56",
"%  c #494E58",
"&  c #4A4F58",
"*  c #4B505A",
"=  c #4C515A",
"-  c #4D525B",
";  c #4E525C",
":  c #565656",
">  c #50545E",
",  c #50555E",
"<  c #51565F",
"1  c #5A5A5A",
"2  c #5B5B5B",
"3  c gray36",
"4  c #5D5D5D",
"5  c gray37",
"6  c #5E5F5F",
"7  c #5F5F5F",
"8  c #545861",
"9  c #565A63",
"0  c #565B64",
"q  c #575C64",
"w  c #585C65",
"e  c #5A5E67",
"r  c #5A5F67",
"t  c #5B5F68",
"y  c #5F6060",
"u  c #5C6068",
"i  c #5C6069",
"p  c #5C6169",
"a  c #5D616A",
"s  c #5E626B",
"d  c #606060",
"f  c #626263",
"g  c gray39",
"h  c #656565",
"j  c #676767",
"k  c #60646D",
"l  c #61656D",
"z  c #61666E",
"x  c #63676F",
"c  c gray43",
"v  c #646870",
"b  c #666A72",
"n  c #696D74",
"m  c #696D75",
"M  c #6B6F77",
"N  c #6F737A",
"B  c #737375",
"V  c #737475",
"C  c #777777",
"Z  c #71757C",
"A  c #73777E",
"S  c #75787F",
"D  c #7D7E7F",
"F  c #777A81",
"G  c #797C84",
"H  c #797D84",
"J  c #7A7D84",
"K  c #7C8087",
"L  c #7E8188",
"P  c #7F8288",
"I  c #7F838A",
"U  c #818181",
"Y  c #88898F",
"T  c #888B8F",
"R  c #868A90",
"E  c #888B92",
"W  c #898C92",
"Q  c #8B8E94",
"!  c gray57",
"~  c #939494",
"^  c #93959B",
"/  c #94979C",
"(  c #94979D",
")  c #95979D",
"_  c #95989D",
"`  c #999A9B",
"'  c #9A9CA1",
"]  c #9B9DA3",
"[  c #9B9EA3",
"{  c #9C9FA3",
"}  c #9C9FA4",
"|  c #9DA0A5",
" . c #A0A3A8",
".. c #A1A3A8",
"X. c #A2A4A9",
"o. c #A2A5A9",
"O. c #A2A5AA",
"+. c #A3A5AA",
"@. c #A4A6AB",
"#. c #A5A7AC",
/* pixels */
"+ + + + + + + + + + + + + + + + + + + + + + + + + + + + + + + + + + + + + + + + + + + + ",
"+ + + + + + + + + + + + + + + + + + + + + + + + + + + + + + + + + + + + + + + + + + + + ",
"+ + + + + + + + + + + + + + + + + + + + + + + + + + + + + + + + + + + + + + + + + + + + ",
"+ + + + + + @ # $ % * = - ; ; ; ; ; ; ; ; ; ; ; ; ; ; ; ; ; ; ; ; - = * % $ # @ + + + + ",
"+ + + + @ # % = < 0 t s k l z z z z z z z z z z z z z z z z z z l k s t 0 < = % # @ + + ",
"+ + + + # & > w z M A G K L L L L L L L L L L L L L L L L L L L L K G A M z w > & # + + ",
"+ + + @ % > t m J E _ | +.@.#.#.#.#.#.#.#.#.#.#.#.#.#.#.#.#.#.#.@.+.| _ W J m t > % @ + ",
"+ + + # - w m I ) ` ~ ! ! ! ! ! ! ! ! ! ! ! ! ! ! ! ! ! ! ! ! ! ! ! ! ~ ` ) I m w - # + ",
"+ + + $ < z J ^ U C j d 7 7 7 7 7 7 7 7 7 7 7 7 7 7 7 7 7 7 7 7 7 7 d j C U ^ J z < $ + ",
"+ + + % 0 M W D c 7 5 7 7 7 7 7 7 7 7 7 7 7 7 7 7 7 7 7 7 7 7 7 7 7 7 5 7 c D W M 0 % + ",
"+ + + * t A ( g h 5 5 5 5 5 5 5 5 5 5 5 5 5 5 5 5 5 5 5 5 5 5 5 5 5 5 5 5 h f _ A t * + ",
"+ + + = s G } 5 7 5 5 5 5 5 5 5 5 5 5 5 5 5 5 5 5 5 5 5 5 5 5 5 5 5 5 5 5 7 5 } G s = + ",
"+ + + - k K ..4 4 4 4 4 4 4 4 4 4 4 4 4 4 4 4 4 4 4 4 4 4 4 4 4 4 4 4 4 4 4 4 ..K k - + ",
"+ + + ; l L o.4 4 4 4 4 4 4 4 4 4 4 4 4 4 4 4 4 4 4 4 4 4 4 4 4 4 4 4 4 4 4 4 o.L l ; + ",
"+ + + ; z L O.3 3 3 3 3 3 3 3 3 3 3 3 3 3 3 X X 3 3 3 3 3 3 3 3 3 3 3 3 3 3 3 O.L z ; + ",
"+ + + ; z L O.3 3 3 3 3 3 3 3 3 3 3 3 3 3 3     3 3 3 3 3 3 3 3 3 3 3 3 3 3 3 O.L z ; + ",
"+ + + ; z L O.2 2 2 2 2 2 2 2 2 2 2 2 2 2 2     2 2 2 2 2 2 2 2 2 2 2 2 2 2 2 O.L z ; + ",
"+ + + ; z L O.2 2 2 2 2 2 2 2 2 2 2 2 2 2 2     2 2 2 2 2 2 2 2 2 2 2 2 2 2 2 O.L z ; + ",
"+ + + ; z L O.1 1 1 1 1 1 1 1 1 1 : o o o o     o o o o : 1 1 1 1 1 1 1 1 1 1 O.L z ; + ",
"+ + + ; z L O.1 1 1 1 1 1 1 1 1 1 o                     o 1 1 1 1 1 1 1 1 1 1 O.L z ; + ",
"+ + + ; z L O.1 1 1 1 1 1 1 1 1 1 O . . . .     . . . . O 1 1 1 1 1 1 1 1 1 1 O.L z ; + ",
"+ + + ; z L O.1 1 1 1 1 1 1 1 1 1 1 1 1 1 1     1 1 1 1 1 1 1 1 1 1 1 1 1 1 1 O.L z ; + ",
"+ + + ; z L O.1 1 1 1 1 1 1 1 1 1 1 1 1 1 1     1 1 1 1 1 1 1 1 1 1 1 1 1 1 1 O.L z ; + ",
"+ + + ; z L O.1 1 1 1 1 1 1 1 1 1 1 1 1 1 1     1 1 1 1 1 1 1 1 1 1 1 1 1 1 1 O.L z ; + ",
"+ + + ; l L X.1 1 1 1 1 1 1 1 1 1 1 1 1 1 1     1 1 1 1 1 1 1 1 1 1 1 1 1 1 1 X.L l ; + ",
"+ + + - k K  .1 1 1 1 1 1 1 1 1 1 1 1 1 1 1 1 1 1 1 1 1 1 1 1 1 1 1 1 1 1 1 1  .K k - + ",
"+ + + = s G ] 1 1 1 1 1 1 1 1 1 1 1 1 1 1 1 1 1 1 1 1 1 1 1 1 1 1 1 1 1 1 1 1 ] G s = + ",
"+ + + * t A ^ 7 1 1 1 1 1 1 1 1 1 1 1 1 1 1 1 1 1 1 1 1 1 1 1 1 1 1 1 1 1 1 6 ^ A t * + ",
"+ + + % 0 M R V 1 1 1 1 1 1 1 1 1 1 1 1 1 1 1 1 1 1 1 1 1 1 1 1 1 1 1 1 1 1 V R M 0 % + ",
"+ + + $ < z F T y 1 1 1 1 1 1 1 1 1 1 1 1 1 1 1 1 1 1 1 1 1 1 1 1 1 1 1 1 y T F z < $ + ",
"+ + + # - w b H Y B 7 1 1 1 1 1 1 1 1 1 1 1 1 1 1 1 1 1 1 1 1 1 1 1 1 7 B Y H b w - # + ",
"+ + + @ % > e v Z P Q / ' [ { { { { { { { { { { { { { { { { { { [ ' / Q P Z v e > % @ + ",
"+ + + + # & > 9 i x n N A S S S S S S S S S S S S S S S S S S S S A N n x i 9 > & # + + ",
"+ + + + @ # % - , 8 q r u p a a a a a a a a a a a a a a a a a a p u r q 8 , - % # @ + + ",
"+ + + + + + @ # $ % * = - ; ; ; ; ; ; ; ; ; ; ; ; ; ; ; ; ; ; ; ; - = * % $ # @ + + + + ",
"+ + + + + + + + + + + + + + + + + + + + + + + + + + + + + + + + + + + + + + + + + + + + "
};
